<?xml version="1.0" encoding="utf-8"?>
<!-- Generator: Adobe Illustrator 19.2.1, SVG Export Plug-In . SVG Version: 6.00 Build 0)  -->
<svg version="1.1" id="face" xmlns="http://www.w3.org/2000/svg" xmlns:xlink="http://www.w3.org/1999/xlink" x="0px" y="0px"
	 viewBox="0 0 247.1 407.2" style="enable-background:new 0 0 247.1 407.2;" xml:space="preserve">
<style type="text/css">
	.st0{fill:#3A3A3A;stroke:#3A3A3A;stroke-width:4;stroke-miterlimit:10;}
	.st1{fill:none;stroke:#3A3A3A;stroke-width:4;stroke-miterlimit:10;}
	.st2{fill:#3A3A3A;stroke:#3A3A3A;stroke-width:2.4671;stroke-miterlimit:10;}
	.st3{fill:#3A3A3A;stroke:#3A3A3A;stroke-width:1.4264;stroke-miterlimit:10;}
</style>
<g>
	<path class="st0" d="M19,249.1l-1.7-44.7L8,185.1l-6-79l25.7-57.7l-8.3,3l12.7-32l38.7-4.3L53.4,3.8l69.3,5.7L144,2.1l37.3,15
		l9,9.5l-9.7,6.5l0,0H195l38.3,46.5l11.7,66.6c0,0-7,44.8-7.7,45.8s-2,23.6-2,23.6l0.3,36.9l-2.3-37.7l-8-33.2l-12.7-29.2l-9-43.3
		L183,87.8c0,0-73.7,16.3-125,0l-25.7,27.7l-3,34.3l-7.8,38l0.4,21.3L19,249.1z"/>
	<polygon class="st0" points="101.7,195.5 96.7,202.5 55,195.5 32.4,201.1 29.7,192.8 54.4,177.1 	"/>
	<polygon class="st0" points="145,195.1 151.7,202.5 192.4,189.8 217.7,193.1 219.7,186.1 196,173.1 	"/>
	<path class="st1" d="M19,249.1l-0.2,6c0,0,8.2,47.7,17.2,65c0,0,39.8,71.5,65.3,80s50.8,5.5,64-3.8c7.2-5.1,27.2-26.3,41-48.3
		c11.5-18.2,17.8-38,18.3-40.3c2.2-10,11.7-59.2,11-55.3"/>
	<circle class="st0" cx="216.3" cy="255.6" r="1.3"/>
</g>
<path class="st2" d="M236.3,252.1c0,1-0.3,1.8-0.7,1.8s-1.2-1.8-0.7-1.8c1.4,0,0.3-1.8,0.7-1.8S236.3,251.1,236.3,252.1z"/>
<rect x="18.4" y="249.5" transform="matrix(4.494693e-002 -0.999 0.999 4.494693e-002 -231.2774 258.4873)" class="st3" width="2.4" height="1.5"/>
</svg>
